<svg xmlns="http://www.w3.org/2000/svg" viewBox="0 0 64 64" width="64" height="64">
  <ellipse cx="32" cy="10" rx="5" ry="10" fill="#D8A818"/>
  <ellipse cx="32" cy="10" rx="5" ry="10" fill="#D8A818" transform="rotate(22.5 32 32)"/>
  <ellipse cx="32" cy="10" rx="5" ry="10" fill="#D8A818" transform="rotate(45 32 32)"/>
  <ellipse cx="32" cy="10" rx="5" ry="10" fill="#D8A818" transform="rotate(67.5 32 32)"/>
  <ellipse cx="32" cy="10" rx="5" ry="10" fill="#D8A818" transform="rotate(90 32 32)"/>
  <ellipse cx="32" cy="10" rx="5" ry="10" fill="#D8A818" transform="rotate(112.5 32 32)"/>
  <ellipse cx="32" cy="10" rx="5" ry="10" fill="#D8A818" transform="rotate(135 32 32)"/>
  <ellipse cx="32" cy="10" rx="5" ry="10" fill="#D8A818" transform="rotate(157.5 32 32)"/>
  <ellipse cx="32" cy="10" rx="5" ry="10" fill="#E8C830" transform="rotate(180 32 32)"/>
  <ellipse cx="32" cy="10" rx="5" ry="10" fill="#E8C830" transform="rotate(202.5 32 32)"/>
  <circle  cx="32" cy="32" r="12" fill="#5A3010"/>
  <rect    x="30" y="48" width="4" height="12" rx="2" fill="#3A6A28"/>
</svg>
