<svg width="1200" height="630" viewBox="0 0 1200 630" fill="none" xmlns="http://www.w3.org/2000/svg">
  <defs>
    <linearGradient id="bg" x1="600" y1="0" x2="600" y2="630" gradientUnits="userSpaceOnUse">
      <stop stop-color="#FBF3E8"/>
      <stop offset="0.32" stop-color="#D5B183"/>
      <stop offset="1" stop-color="#4E443E"/>
    </linearGradient>
    <linearGradient id="rail" x1="198" y1="540" x2="1002" y2="114" gradientUnits="userSpaceOnUse">
      <stop stop-color="#F7E4C2"/>
      <stop offset="1" stop-color="#FFF9EE"/>
    </linearGradient>
  </defs>
  <rect width="1200" height="630" rx="32" fill="url(#bg)"/>
  <path d="M274 558C391 484 438 430 485 356C531 284 624 250 661 211C727 141 847 111 939 83" stroke="#E8B367" stroke-width="24" stroke-linecap="round"/>
  <path d="M344 576C460 502 507 448 554 374C600 302 693 268 730 229C796 159 916 129 1008 101" stroke="#E8B367" stroke-width="24" stroke-linecap="round"/>
  <path d="M274 558C391 484 438 430 485 356C531 284 624 250 661 211C727 141 847 111 939 83" stroke="url(#rail)" stroke-width="104" stroke-linecap="round"/>
  <path d="M344 576C460 502 507 448 554 374C600 302 693 268 730 229C796 159 916 129 1008 101" stroke="url(#rail)" stroke-width="104" stroke-linecap="round"/>
  <circle cx="438" cy="384" r="28" fill="#6ED4C6"/>
  <circle cx="748" cy="198" r="28" fill="#F0BE7A"/>
  <path d="M465 431L430 476" stroke="#6ED4C6" stroke-width="10" stroke-linecap="round"/>
  <path d="M778 251L825 286" stroke="#F0BE7A" stroke-width="10" stroke-linecap="round"/>
  <rect x="360" y="454" width="128" height="68" rx="18" fill="#243949"/>
  <rect x="386" y="426" width="76" height="34" rx="12" fill="#EA7C63"/>
  <circle cx="390" cy="530" r="20" fill="#FFF8EF"/>
  <circle cx="458" cy="530" r="20" fill="#FFF8EF"/>
  <path d="M424 485L436 386" stroke="#6ED4C6" stroke-width="8" stroke-linecap="round"/>
  <path d="M424 485L777 198" stroke="#F0BE7A" stroke-width="8" stroke-linecap="round" opacity="0.8"/>
  <rect x="80" y="86" width="372" height="176" rx="28" fill="rgba(255,248,239,0.88)" stroke="#D8C3A3"/>
  <text x="116" y="148" fill="#243949" font-size="64" font-family="Arial, Apple SD Gothic Neo, Noto Sans KR, sans-serif" font-weight="900">Rail Lash</text>
  <text x="116" y="206" fill="#243949" font-size="64" font-family="Arial, Apple SD Gothic Neo, Noto Sans KR, sans-serif" font-weight="900">Rally</text>
  <text x="116" y="238" fill="#687B86" font-size="28" font-family="Arial, Apple SD Gothic Neo, Noto Sans KR, sans-serif" font-weight="700">붙잡고, 놓고, 코너를 찢는 whip racing</text>
  <rect x="84" y="500" width="236" height="56" rx="28" fill="#FFF8EF" stroke="#D8C3A3"/>
  <text x="122" y="537" fill="#243949" font-size="28" font-family="Arial, Apple SD Gothic Neo, Noto Sans KR, sans-serif" font-weight="900">PERFECT WHIP × 6</text>
</svg>
