<svg xmlns="http://www.w3.org/2000/svg" viewBox="0 0 1200 630" role="img" aria-label="Switchhook Speedway cover">
  <defs>
    <linearGradient id="bg" x1="0" x2="0" y1="0" y2="1">
      <stop offset="0%" stop-color="#f4dfbc"/>
      <stop offset="45%" stop-color="#d38d5e"/>
      <stop offset="100%" stop-color="#213f57"/>
    </linearGradient>
    <linearGradient id="track" x1="0" x2="1" y1="0" y2="0">
      <stop offset="0%" stop-color="#f9edd8"/>
      <stop offset="100%" stop-color="#d5b483"/>
    </linearGradient>
  </defs>
  <rect width="1200" height="630" fill="url(#bg)"/>
  <path d="M130 600 C280 520 330 400 470 320 C620 235 665 205 792 150 C898 104 1012 70 1110 52" fill="none" stroke="url(#track)" stroke-width="140" stroke-linecap="round"/>
  <path d="M143 600 C295 522 344 404 487 325 C640 241 686 210 809 154 C915 108 1025 77 1124 61" fill="none" stroke="#fff7e7" stroke-width="8" stroke-linecap="round"/>
  <path d="M121 600 C269 518 318 397 454 317 C603 230 648 202 772 148 C879 103 997 71 1092 56" fill="none" stroke="#fff7e7" stroke-width="8" stroke-linecap="round"/>
  <circle cx="456" cy="420" r="42" fill="#33414c"/>
  <rect x="414" y="388" width="84" height="110" rx="18" fill="#404554"/>
  <rect x="431" y="404" width="50" height="40" rx="8" fill="#d68060"/>
  <path d="M456 394 L356 548" stroke="#7ac8c2" stroke-width="10" stroke-linecap="round"/>
  <path d="M456 394 L570 310" stroke="#cf7857" stroke-width="10" stroke-linecap="round"/>
  <polygon points="835,190 900,140 900,240" fill="#7ac8c2"/>
  <rect x="680" y="315" width="34" height="34" fill="#693e31" stroke="#f3c46e" stroke-width="4"/>
  <text x="88" y="154" fill="#fff8ec" font-family="Inter, Arial, sans-serif" font-size="82" font-weight="800">Switchhook Speedway</text>
  <text x="90" y="226" fill="#fff0d4" font-family="Inter, Arial, sans-serif" font-size="34">Hold the hook. Release on the apex. Chain perfect boosts.</text>
  <text x="92" y="286" fill="#214057" font-family="Inter, Arial, sans-serif" font-size="28" font-weight="700">레일 훅 hold/release로 코너를 찢는 세로형 모바일 랠리</text>
</svg>
