<svg xmlns="http://www.w3.org/2000/svg" viewBox="0 0 1200 630">
  <defs>
    <linearGradient id="bg" x1="0" x2="1" y1="0" y2="1">
      <stop offset="0%" stop-color="#fff5e2"/>
      <stop offset="48%" stop-color="#d3ab74"/>
      <stop offset="100%" stop-color="#6b8a87"/>
    </linearGradient>
    <radialGradient id="rose" cx="50%" cy="42%" r="48%">
      <stop offset="0%" stop-color="#fff8ef"/>
      <stop offset="40%" stop-color="#e8bb73"/>
      <stop offset="72%" stop-color="#b56f62"/>
      <stop offset="100%" stop-color="#6a7f79"/>
    </radialGradient>
  </defs>
  <rect width="1200" height="630" fill="url(#bg)"/>
  <circle cx="600" cy="260" r="200" fill="url(#rose)" opacity="0.95"/>
  <circle cx="600" cy="260" r="150" fill="none" stroke="#fdf4e6" stroke-width="14" opacity="0.85"/>
  <circle cx="600" cy="260" r="95" fill="none" stroke="#f5d7a3" stroke-width="10" opacity="0.95"/>
  <path d="M600 70 L600 155" stroke="#60473b" stroke-width="14" stroke-linecap="round"/>
  <path d="M600 155 C680 180 760 310 710 425 C675 506 575 528 510 470 C438 406 452 282 535 215 C562 193 582 177 600 155 Z" fill="#3f5d5d" opacity="0.18"/>
  <circle cx="640" cy="408" r="52" fill="#5b746f" stroke="#f8eed7" stroke-width="12"/>
  <circle cx="640" cy="408" r="28" fill="#c47e63"/>
  <g fill="#fff5e2" opacity="0.86">
    <circle cx="420" cy="218" r="18"/>
    <circle cx="780" cy="218" r="18"/>
    <circle cx="600" cy="482" r="22"/>
  </g>
  <text x="76" y="522" fill="#2f312f" font-family="Arial, Helvetica, sans-serif" font-size="72" font-weight="700">Belfry Oathkeeper</text>
  <text x="80" y="577" fill="#56463b" font-family="Arial, Helvetica, sans-serif" font-size="34">Drag the anchor rail. Bend the bell swing. Strike the vow in time.</text>
</svg>
